<svg width="698" height="555" viewBox="0 0 698 555" fill="none" xmlns="http://www.w3.org/2000/svg">
<path opacity="0.3" d="M151.35 122.146C110.166 144.192 67.7329 167.281 39.0276 204.203C21.7891 226.403 10.3031 252.828 4.25483 280.324C-6.10544 327.256 1.56459 381.664 37.2054 413.94C49.6072 425.222 64.7756 433.186 80.4209 439.304C112.852 451.964 147.711 457.143 182.411 454.458C210.907 452.23 239.355 444.706 267.707 448.291C302.289 452.651 332.483 472.919 364.699 486.265C404.73 502.785 448.319 508.743 491.302 503.57C502.139 502.25 513.11 500.137 522.64 494.803C533.955 488.464 542.34 478.11 551.26 468.645C571.37 447.223 595.094 429.523 621.34 416.359C635.106 409.457 649.692 403.73 661.645 394.016C693.127 368.49 698.517 322.81 696.685 282.303C694.854 241.795 685.743 197.081 653.393 172.482C646.172 166.994 638.044 162.74 631.042 156.956C607.688 137.663 600.705 105.368 585.746 78.9711C552.204 19.9449 477.364 -5.89698 409.984 1.4072C313.432 11.8759 234.356 77.7187 151.35 122.146Z" fill="#272838"/>
<path d="M657.219 282.714C656.341 290.84 646.334 304.483 632.492 319.818C609.806 344.905 576.846 374.494 557.022 391.732C546.795 400.633 540.07 406.245 540.07 406.245V251.805C540.07 251.805 564.072 221.001 581.511 219.022C598.949 217.043 634.142 237.484 634.142 237.484C634.142 237.484 660.157 254.453 657.219 282.714Z" fill="#D24747"/>
<path d="M632.492 319.818C609.806 344.905 576.846 374.494 557.022 391.732C555.543 389.37 555.247 386.158 555.114 383.252C554.589 368.729 554.713 354.188 554.847 339.656C554.971 325.545 555.095 311.443 555.982 297.361C556.822 284.244 558.424 270.83 564.415 259.119C565.767 260.33 566.883 261.782 567.707 263.402C575.253 276.394 580.022 290.726 584.792 304.952C587.152 311.963 589.511 319.002 591.871 326.071C597.158 323.156 601.885 319.32 605.828 314.741C609.453 310.716 612.687 306.366 616.016 302.103C618.344 299.12 622.885 290.63 626.51 293.823C632.387 298.957 632.864 310.707 632.492 319.818Z" fill="url(#paint0_linear)"/>
<path d="M557.69 48.4639H166.947V501.983H557.69V48.4639Z" fill="#272838"/>
<path d="M557.69 48.4639H166.947V501.983H557.69V48.4639Z" fill="url(#paint1_linear)"/>
<path d="M503.99 70.386L166.947 100.664C168.464 100.664 166.947 58.5979 166.947 48.4639H522.306V52.0204C522.306 56.8896 520.377 61.5595 516.942 65.0034C513.507 68.4474 508.849 70.3835 503.99 70.386Z" fill="url(#paint2_linear)"/>
<path d="M557.69 100.664H166.947V554.183H557.69V100.664Z" fill="#272838"/>
<path d="M222.498 100.664H166.947V554.183H222.498V100.664Z" fill="url(#paint3_linear)"/>
<path d="M256.25 185.427H188.755V253.067H256.25V185.427Z" fill="white"/>
<path d="M327.493 185.427H259.999V253.067H327.493V185.427Z" fill="white"/>
<path d="M398.746 185.427H331.252V253.067H398.746V185.427Z" fill="white"/>
<path d="M469.99 185.427H402.495V253.067H469.99V185.427Z" fill="white"/>
<path d="M256.25 256.04H188.755V323.681H256.25V256.04Z" fill="white"/>
<path d="M327.493 256.04H259.999V323.681H327.493V256.04Z" fill="white"/>
<path d="M398.746 256.04H331.252V323.681H398.746V256.04Z" fill="white"/>
<path d="M469.99 256.04H402.495V323.681H469.99V256.04Z" fill="white"/>
<path d="M256.25 326.654H188.755V394.294H256.25V326.654Z" fill="white"/>
<path d="M327.493 326.654H259.999V394.294H327.493V326.654Z" fill="white"/>
<path d="M398.746 326.654H331.252V394.294H398.746V326.654Z" fill="white"/>
<path d="M469.99 326.654H402.495V394.294H469.99V326.654Z" fill="white"/>
<path d="M256.25 397.267H188.755V464.907H256.25V397.267Z" fill="white"/>
<path d="M327.493 397.267H259.999V464.907H327.493V397.267Z" fill="white"/>
<path d="M398.746 397.267H331.252V464.907H398.746V397.267Z" fill="white"/>
<path d="M469.99 397.267H402.495V464.907H469.99V397.267Z" fill="white"/>
<path d="M256.25 467.881H188.755V535.521H256.25V467.881Z" fill="white"/>
<path d="M327.493 467.881H259.999V535.521H327.493V467.881Z" fill="white"/>
<path d="M398.746 467.881H331.252V535.521H398.746V467.881Z" fill="white"/>
<path d="M540.041 185.427H472.547V253.067H540.041V185.427Z" fill="white"/>
<path d="M540.041 114.813H472.547V182.453H540.041V114.813Z" fill="white"/>
<path d="M469.99 114.813H402.495V182.453H469.99V114.813Z" fill="white"/>
<path d="M540.041 256.04H472.547V323.681H540.041V256.04Z" fill="white"/>
<path d="M540.041 326.654H472.547V394.294H540.041V326.654Z" fill="white"/>
<path d="M540.041 397.267H472.547V464.907H540.041V397.267Z" fill="white"/>
<path d="M197.217 30.127V66.8009C197.217 68.78 199.726 70.3861 202.807 70.3861C205.898 70.3861 208.398 68.78 208.398 66.8009V30.127C208.398 28.148 205.898 26.5419 202.807 26.5419C199.726 26.5419 197.217 28.148 197.217 30.127Z" fill="#272838"/>
<path d="M250.659 30.127V66.8009C250.659 68.78 253.159 70.3861 256.25 70.3861C259.341 70.3861 261.84 68.78 261.84 66.8009V30.127C261.84 28.148 259.341 26.5419 256.25 26.5419C253.159 26.5419 250.659 28.148 250.659 30.127Z" fill="#272838"/>
<path d="M304.102 30.127V66.8009C304.102 68.78 306.601 70.3861 309.692 70.3861C312.783 70.3861 315.282 68.78 315.282 66.8009V30.127C315.282 28.148 312.783 26.5419 309.692 26.5419C306.601 26.5419 304.102 28.148 304.102 30.127Z" fill="#272838"/>
<path d="M357.544 30.127V66.8009C357.544 68.78 360.043 70.3861 363.134 70.3861C366.215 70.3861 368.724 68.78 368.724 66.8009V30.127C368.724 28.148 366.215 26.5419 363.134 26.5419C360.043 26.5419 357.544 28.148 357.544 30.127Z" fill="#272838"/>
<path d="M410.976 30.127V66.8009C410.976 68.78 413.485 70.3861 416.576 70.3861C419.658 70.3861 422.167 68.78 422.167 66.8009V30.127C422.167 28.148 419.658 26.5419 416.576 26.5419C413.485 26.5419 410.976 28.148 410.976 30.127Z" fill="#272838"/>
<path d="M464.419 30.127V66.8009C464.419 68.78 466.928 70.3861 470.009 70.3861C473.1 70.3861 475.609 68.78 475.609 66.8009V30.127C475.609 28.148 473.1 26.5419 470.009 26.5419C466.928 26.5419 464.419 28.148 464.419 30.127Z" fill="#272838"/>
<path d="M516.716 30.127V66.8009C516.716 68.78 519.225 70.3861 522.306 70.3861C525.397 70.3861 527.897 68.78 527.897 66.8009V30.127C527.897 28.148 525.397 26.5419 522.306 26.5419C519.225 26.5419 516.716 28.148 516.716 30.127Z" fill="#272838"/>
<path d="M566.59 48.4639H557.699V554.183H566.59V48.4639Z" fill="#272838"/>
<path d="M566.59 48.4639H557.699V554.183H566.59V48.4639Z" fill="url(#paint4_linear)"/>
<path d="M418.084 124.728C418.085 125.792 417.772 126.833 417.184 127.72C416.595 128.606 415.758 129.297 414.777 129.706C413.796 130.115 412.716 130.224 411.674 130.018C410.632 129.812 409.674 129.301 408.922 128.55C408.169 127.798 407.656 126.84 407.447 125.797C407.238 124.753 407.342 123.67 407.747 122.686C408.152 121.702 408.839 120.86 409.721 120.267C410.603 119.674 411.641 119.357 412.703 119.355C414.127 119.355 415.493 119.92 416.501 120.927C417.509 121.934 418.079 123.301 418.084 124.728Z" fill="url(#paint5_linear)"/>
<path d="M418.084 195.351C418.085 196.415 417.772 197.456 417.184 198.343C416.595 199.229 415.758 199.92 414.777 200.329C413.796 200.738 412.716 200.847 411.674 200.641C410.632 200.435 409.674 199.924 408.922 199.173C408.169 198.422 407.656 197.463 407.447 196.42C407.238 195.376 407.342 194.293 407.747 193.309C408.152 192.325 408.839 191.483 409.721 190.89C410.603 190.297 411.641 189.98 412.703 189.978C414.127 189.978 415.493 190.543 416.501 191.55C417.509 192.557 418.079 193.924 418.084 195.351Z" fill="url(#paint6_linear)"/>
<path d="M431.201 195.351C431.203 196.415 430.89 197.456 430.301 198.343C429.712 199.229 428.875 199.92 427.894 200.329C426.914 200.738 425.834 200.847 424.792 200.641C423.749 200.435 422.791 199.924 422.039 199.173C421.287 198.422 420.773 197.463 420.564 196.42C420.355 195.376 420.46 194.293 420.864 193.309C421.269 192.325 421.956 191.483 422.838 190.89C423.72 190.297 424.758 189.98 425.82 189.978C427.244 189.978 428.61 190.543 429.618 191.55C430.627 192.557 431.196 193.924 431.201 195.351Z" fill="url(#paint7_linear)"/>
<path d="M444.394 195.351C444.396 196.415 444.083 197.456 443.495 198.343C442.906 199.229 442.068 199.92 441.088 200.329C440.107 200.738 439.027 200.847 437.985 200.641C436.943 200.435 435.985 199.924 435.232 199.173C434.48 198.422 433.967 197.463 433.758 196.42C433.549 195.376 433.653 194.293 434.058 193.309C434.463 192.325 435.149 191.483 436.032 190.89C436.914 190.297 437.952 189.98 439.014 189.978C440.438 189.978 441.803 190.543 442.812 191.55C443.82 192.557 444.389 193.924 444.394 195.351Z" fill="url(#paint8_linear)"/>
<path d="M418.084 337.591C418.084 338.656 417.769 339.696 417.178 340.581C416.588 341.467 415.749 342.156 414.768 342.564C413.787 342.971 412.707 343.078 411.665 342.87C410.623 342.662 409.666 342.15 408.915 341.397C408.164 340.644 407.652 339.685 407.445 338.641C407.238 337.597 407.344 336.515 407.751 335.531C408.157 334.548 408.846 333.707 409.729 333.115C410.612 332.524 411.65 332.208 412.713 332.208C414.135 332.208 415.498 332.774 416.504 333.782C417.509 334.79 418.074 336.156 418.074 337.581L418.084 337.591Z" fill="url(#paint9_linear)"/>
<path d="M200.089 342.964C203.05 342.964 205.45 340.558 205.45 337.591C205.45 334.623 203.05 332.218 200.089 332.218C197.128 332.218 194.727 334.623 194.727 337.591C194.727 340.558 197.128 342.964 200.089 342.964Z" fill="#FF2235"/>
<path d="M431.201 337.591C431.201 338.656 430.886 339.696 430.296 340.581C429.705 341.467 428.867 342.156 427.885 342.564C426.904 342.971 425.824 343.078 424.782 342.87C423.74 342.662 422.783 342.15 422.032 341.397C421.281 340.644 420.769 339.685 420.562 338.641C420.355 337.597 420.461 336.515 420.868 335.531C421.274 334.548 421.963 333.707 422.846 333.115C423.729 332.524 424.768 332.208 425.83 332.208C427.252 332.208 428.615 332.774 429.621 333.782C430.626 334.79 431.191 336.156 431.191 337.581L431.201 337.591Z" fill="url(#paint10_linear)"/>
<path d="M444.394 337.591C444.394 338.656 444.079 339.696 443.489 340.581C442.899 341.467 442.06 342.156 441.079 342.564C440.097 342.971 439.018 343.078 437.976 342.87C436.934 342.662 435.977 342.15 435.226 341.397C434.475 340.644 433.963 339.685 433.756 338.641C433.549 337.597 433.655 336.515 434.061 335.531C434.468 334.548 435.156 333.707 436.04 333.115C436.923 332.524 437.961 332.208 439.024 332.208C440.445 332.208 441.809 332.774 442.815 333.782C443.82 334.79 444.385 336.156 444.385 337.581L444.394 337.591Z" fill="url(#paint11_linear)"/>
<path d="M656.58 193.037C655.082 199.175 657.085 207.684 654.242 213.315C649.472 222.78 635.525 229.061 633.465 239.453C633.341 240.055 617.819 247.551 609.815 244.988C605.627 243.66 603.5 239.568 606.724 230.313C607.736 227.445 613.402 226.374 614.929 223.707L614.614 223.468C606.867 217.607 606.028 205.188 607.631 196.899C609.233 188.61 612.906 180.647 616.846 173.075C619.88 167.243 626.729 164.078 633.293 164.184C641.545 164.327 650.255 167.635 654.548 174.7C657.829 180.083 658.068 186.899 656.58 193.037Z" fill="url(#paint12_linear)"/>
<path d="M618.458 148.39C614.232 150.627 609.739 153.265 605.007 152.548C604.885 153.687 605.07 154.838 605.543 155.881C606.017 156.924 606.761 157.82 607.697 158.476L604.759 159.136C604.638 159.144 604.521 159.18 604.415 159.239C604.31 159.299 604.219 159.381 604.149 159.48C604.112 159.586 604.099 159.7 604.11 159.812C604.122 159.925 604.158 160.033 604.215 160.13C604.939 161.82 606.126 163.269 607.64 164.308C607.116 165.436 605.217 165.187 604.568 166.22C604.432 166.52 604.361 166.846 604.361 167.176C604.361 167.506 604.432 167.832 604.568 168.132C605.224 169.915 606.344 171.49 607.812 172.692C606.057 174.604 607.154 178.142 609.577 179.012C610.823 179.36 612.154 179.219 613.3 178.617C614.445 178.014 615.318 176.996 615.74 175.771C615.848 176.877 615.593 177.988 615.015 178.935C623.018 180.197 631.576 181.383 638.94 177.979C638.595 178.743 638.407 179.569 638.387 180.408C640.164 180.965 642.05 181.083 643.882 180.752C644.264 184.69 643.911 188.664 642.842 192.473C642.184 194.844 641.24 197.138 640.82 199.557C640.271 202.008 640.706 204.577 642.031 206.708C643.3 206.594 644.197 205.399 644.683 204.223C645.034 202.997 645.565 201.831 646.258 200.762C648.165 198.525 652.134 199.347 653.67 201.823C655.206 204.299 654.624 207.626 653.155 210.121C652.247 211.593 651.046 212.861 649.628 213.848C648.211 214.835 646.605 215.519 644.912 215.858C645.189 218.525 645.475 221.192 645.752 223.85C650.779 219.07 656.408 214.969 660.93 209.739C665.452 204.509 668.877 197.817 668.295 190.915C667.942 186.66 666.091 182.616 665.948 178.343C665.881 176.43 666.167 174.471 666.091 172.539C665.914 169.462 664.838 166.505 662.998 164.035C661.158 161.566 658.634 159.692 655.74 158.648C653.307 157.816 650.627 157.577 648.471 156.172C645.79 154.432 644.397 151.191 641.736 149.413C638.874 147.501 634.428 146.717 631.099 145.77C626.768 144.565 622.265 146.392 618.458 148.39Z" fill="#3F3D56"/>
<path d="M558.443 238.851C558.103 239.06 557.81 239.338 557.583 239.667C557.357 239.996 557.201 240.37 557.127 240.763C557.165 241.175 557.335 241.563 557.612 241.87C557.889 242.177 558.257 242.385 558.663 242.464C559.478 242.608 560.316 242.569 561.114 242.35L565.961 241.394C563.345 242.859 561.172 245.007 559.674 247.608C559.497 247.908 559.411 248.253 559.427 248.601C559.442 248.949 559.558 249.285 559.76 249.568C560.409 250.39 561.506 250.065 562.383 249.721L566.59 248.038L563.728 250.82C562.838 251.622 562.062 252.542 561.42 253.555C561.142 254.028 560.936 254.54 560.809 255.075C560.731 255.412 560.787 255.766 560.965 256.062C561.143 256.359 561.429 256.574 561.763 256.662C561.981 256.729 562.213 256.729 562.431 256.662C564.18 256.164 565.805 255.304 567.201 254.138C566.169 255.593 565.017 256.958 563.757 258.22C562.497 259.492 561.784 261.208 561.773 263C561.778 263.193 561.841 263.38 561.954 263.536C562.094 263.678 562.28 263.766 562.479 263.784C564.034 264.042 565.446 262.905 566.619 261.872L570.941 257.943C571.637 257.371 572.25 256.705 572.763 255.964C573.049 255.535 573.211 255.036 573.23 254.52C573.186 254.016 572.945 253.55 572.559 253.223C572.172 252.897 571.673 252.738 571.169 252.78C570.864 252.81 570.57 252.912 570.311 253.077C570.435 252.245 570.759 251.47 570.96 250.658C571.206 249.857 571.152 248.993 570.807 248.229C570.621 247.856 570.302 247.568 569.913 247.42C569.524 247.273 569.093 247.279 568.708 247.436C569.214 246.441 569.538 245.362 569.662 244.252C569.713 243.691 569.608 243.127 569.361 242.622C569.114 242.116 568.733 241.688 568.26 241.384C568 241.277 567.761 241.125 567.554 240.935C567.172 240.466 567.478 239.797 567.64 239.214C567.764 238.871 567.82 238.506 567.804 238.141C567.789 237.776 567.701 237.417 567.547 237.086C567.393 236.755 567.175 236.458 566.906 236.211C566.637 235.964 566.323 235.773 565.98 235.648C565.595 235.511 565.185 235.459 564.778 235.495C562.317 235.753 560.265 237.302 558.443 238.851Z" fill="url(#paint13_linear)"/>
<path d="M636.718 274.769C647.689 265.056 661.273 272.417 656.503 286.29C646.191 316.3 624.602 385.058 604.101 385.058C577.389 385.058 566.59 337.591 566.59 337.591L578.925 312.571C578.925 312.571 596.374 350.937 605.16 340.555C613.946 330.172 619.136 290.84 636.212 275.219L636.718 274.769Z" fill="#D24747"/>
<path d="M574.88 310.917C574.718 308.69 574.68 306.456 574.766 304.225C574.709 294.487 571.839 284.974 566.505 276.834C565.942 277.642 565.701 278.63 565.827 279.607L565.97 304.999C566.055 307.105 565.914 309.214 565.551 311.29C565.226 312.801 564.673 314.244 564.244 315.736C563.337 318.836 563.013 322.078 563.29 325.296C563.372 327.025 563.838 328.713 564.654 330.239C565.073 330.996 565.665 331.644 566.381 332.129C567.097 332.614 567.917 332.923 568.775 333.031C569.338 333.031 571.637 328.25 571.971 327.6C572.995 325.688 573.949 323.76 574.833 321.816C575.491 320.344 576.893 318.174 576.645 316.52C576.369 314.665 575.109 312.954 574.88 310.917Z" fill="url(#paint14_linear)"/>
<path d="M625.861 230.189C623.553 232.789 621.263 235.399 618.954 238.009C617.191 240.233 615.092 242.169 612.734 243.745C611.819 244.288 610.838 244.712 609.815 245.007C605.627 243.679 603.5 239.587 606.724 230.332C607.736 227.464 613.402 226.393 614.929 223.726L614.614 223.487C615.71 224.005 616.867 224.384 618.058 224.615C620.538 224.988 626.644 223.057 627.397 226.738C627.664 228.009 626.768 229.204 625.861 230.189Z" fill="url(#paint15_linear)"/>
<path d="M348.471 430.423L358.088 445.394C358.518 446.061 359.194 446.53 359.968 446.698C360.742 446.867 361.551 446.721 362.218 446.293C362.455 446.134 362.67 445.944 362.857 445.729L389.34 415.136C389.715 414.704 389.959 414.174 390.041 413.607C390.124 413.041 390.042 412.463 389.806 411.941C389.57 411.42 389.189 410.978 388.709 410.668C388.228 410.358 387.669 410.193 387.098 410.193H386.879C386.442 410.192 386.011 410.288 385.615 410.473C385.219 410.658 384.869 410.928 384.589 411.264L363.869 436.121C363.365 436.726 362.643 437.107 361.86 437.18C361.077 437.254 360.297 437.014 359.69 436.513C359.461 436.32 359.262 436.095 359.099 435.844L353.461 427.239C353.147 426.763 352.703 426.386 352.183 426.154C351.662 425.922 351.086 425.844 350.522 425.929C350.047 426.01 349.598 426.206 349.216 426.5C348.833 426.793 348.527 427.176 348.325 427.615C348.123 428.054 348.031 428.535 348.056 429.018C348.082 429.5 348.224 429.97 348.471 430.384V430.423Z" fill="#272838"/>
<path d="M232.686 506.132L244.792 518.073C245.218 518.494 245.51 519.032 245.629 519.62C245.749 520.207 245.692 520.816 245.465 521.371C245.238 521.926 244.851 522.4 244.354 522.734C243.857 523.067 243.273 523.245 242.675 523.245H242.159C241.359 523.245 240.592 522.929 240.022 522.366L228.241 510.549C227.674 509.984 226.908 509.668 226.109 509.668C225.31 509.668 224.543 509.984 223.976 510.549L212.195 522.366C211.915 522.645 211.583 522.867 211.218 523.018C210.853 523.169 210.462 523.246 210.067 523.245H209.543C208.945 523.245 208.36 523.067 207.863 522.734C207.366 522.4 206.98 521.926 206.753 521.371C206.526 520.816 206.468 520.207 206.588 519.62C206.708 519.032 206.999 518.494 207.425 518.073L219.54 506.132C220.102 505.569 220.417 504.806 220.417 504.01C220.417 503.214 220.102 502.45 219.54 501.887L207.31 489.631C206.89 489.208 206.605 488.671 206.489 488.086C206.373 487.501 206.433 486.895 206.661 486.344C206.888 485.793 207.273 485.322 207.767 484.99C208.262 484.657 208.843 484.479 209.438 484.478C210.226 484.475 210.984 484.784 211.546 485.338L223.948 497.595C224.512 498.15 225.27 498.461 226.061 498.461C226.851 498.461 227.61 498.15 228.174 497.595L240.576 485.338C241.138 484.784 241.896 484.475 242.684 484.478C243.28 484.477 243.862 484.654 244.358 484.986C244.854 485.317 245.24 485.788 245.469 486.339C245.698 486.891 245.758 487.498 245.643 488.083C245.527 488.669 245.241 489.208 244.821 489.631L232.591 501.887C232.037 502.458 231.732 503.225 231.742 504.022C231.753 504.818 232.079 505.577 232.648 506.132H232.686Z" fill="#272838"/>
<path d="M124.724 468.588H127.681L129.16 535.569L127.681 524.536H124.724V468.588Z" fill="#272838"/>
<path d="M127.681 493.006V493.082C127.681 495.176 126.937 497.269 126.145 499.774C120.937 501.285 117.464 502.499 112.351 497.203C107.237 491.906 101.962 481.667 103.631 476.495C108.84 474.984 118.99 480.481 124.113 485.778C126.765 488.483 127.662 490.749 127.681 493.006Z" fill="#272838"/>
<path d="M142.935 497.241C138.242 501.801 134.941 501.189 130.639 499.813V524.536H127.681V468.588H130.639V486.38C130.915 486.074 131.211 485.768 131.535 485.424C136.82 480.3 147.038 475.003 152.199 476.686C153.716 481.935 148.221 492.107 142.935 497.241Z" fill="#272838"/>
<path d="M142.935 497.762C138.242 502.405 134.941 501.782 130.639 500.381V525.553H127.681V468.588H130.639V486.704C130.915 486.392 131.211 486.081 131.535 485.73C136.82 480.513 147.038 475.12 152.199 476.833C153.716 482.177 148.221 492.535 142.935 497.762Z" fill="url(#paint16_linear)"/>
<path d="M127.681 455.079H114.478C114.478 465.039 120.383 473.114 127.672 473.114L130.782 464.269L127.681 455.079Z" fill="#D24747"/>
<path d="M127.91 459.184L127.681 459.52V457.546L127.91 459.184Z" fill="#272838"/>
<path d="M102.687 435.921C101.017 441.305 106.293 451.974 111.416 457.478C116.539 462.981 120.002 461.737 125.201 460.155C126.87 454.771 128.292 451.098 123.169 445.585C118.046 440.071 107.896 434.349 102.687 435.921Z" fill="#D24747"/>
<path d="M141.991 457.404C141.552 457.842 141.123 458.232 140.703 458.583C139.682 466.828 134.235 473.114 127.681 473.114V459.256L127.91 459.09L127.681 458.271V459.246C127.381 459.464 127.062 459.653 126.727 459.811C122.034 457.034 118.237 448.194 118.542 440.68C118.847 433.166 122.549 422.056 127.433 419.639C132.127 422.416 135.189 433.77 134.912 441.294V441.85C140.322 438.058 147.314 435.154 151.292 436.47C152.771 441.811 147.267 452.17 141.991 457.404Z" fill="#D24747"/>
<path d="M141.991 457.404C141.552 457.842 141.123 458.232 140.703 458.583C139.682 466.828 134.235 473.114 127.681 473.114V459.256L127.91 459.09L127.681 458.271V459.246C127.381 459.464 127.062 459.653 126.727 459.811C122.034 457.034 118.237 448.194 118.542 440.68C118.847 433.166 122.549 422.056 127.433 419.639C132.127 422.416 135.189 433.77 134.912 441.294V441.85C140.322 438.058 147.314 435.154 151.292 436.47C152.771 441.811 147.267 452.17 141.991 457.404Z" fill="url(#paint17_linear)"/>
<path d="M127.91 459.184L127.681 459.52V457.546L127.91 459.184Z" fill="#272838"/>
<path d="M101.59 516.026L106.245 554.722H127.777L136.572 532.706L127.777 514.947L101.59 516.026Z" fill="#272838"/>
<path d="M153.973 516.026L149.318 554.722H127.777V514.947L153.973 516.026Z" fill="#272838"/>
<path d="M137.374 515.894L137.135 516.017L129.828 519.9L127.834 520.983H98.7469C97.869 520.983 97.027 520.61 96.4062 519.945C95.7854 519.28 95.4366 518.378 95.4366 517.437V508.423C95.4328 508.006 95.5058 507.592 95.6515 507.205C95.7971 506.817 96.0125 506.465 96.2853 506.167C96.5582 505.869 96.8831 505.631 97.2416 505.468C97.6002 505.304 97.9853 505.218 98.3749 505.214H98.6515L127.834 505.275L137.374 515.894Z" fill="#272838"/>
<path d="M137.374 515.894L137.135 516.017L129.828 519.9L127.834 520.983H98.7469C97.869 520.983 97.027 520.61 96.4062 519.945C95.7854 519.28 95.4366 518.378 95.4366 517.437V508.423C95.4328 508.006 95.5058 507.592 95.6515 507.205C95.7971 506.817 96.0125 506.465 96.2853 506.167C96.5582 505.869 96.8831 505.631 97.2416 505.468C97.6002 505.304 97.9853 505.218 98.3749 505.214H98.6515L127.834 505.275L137.374 515.894Z" fill="url(#paint18_linear)"/>
<path d="M156.816 520.983H127.777V504.899H156.816C157.694 504.899 158.536 505.272 159.157 505.936C159.778 506.6 160.126 507.501 160.126 508.44V517.442C160.126 518.381 159.778 519.282 159.157 519.946C158.536 520.61 157.694 520.983 156.816 520.983Z" fill="#272838"/>
<path d="M127.786 519.966V554.723H106.245L102.076 519.966H127.786Z" fill="url(#paint19_linear)"/>
<path d="M153.487 519.966L149.318 554.723H127.786V519.966H153.487Z" fill="url(#paint20_linear)"/>
<path d="M160.126 508.823V517.824C160.126 518.764 159.777 519.664 159.157 520.329C158.536 520.993 157.694 521.366 156.816 521.366H127.834V505.281H156.864C157.733 505.295 158.563 505.674 159.174 506.336C159.784 506.999 160.126 507.892 160.126 508.823Z" fill="url(#paint21_linear)"/>
<defs>
<linearGradient id="paint0_linear" x1="608.146" y1="271.194" x2="444.484" y2="578.489" gradientUnits="userSpaceOnUse">
<stop stop-opacity="0"/>
<stop offset="0.91" stop-opacity="0.8"/>
<stop offset="1"/>
</linearGradient>
<linearGradient id="paint1_linear" x1="158730" y1="45667.9" x2="148726" y2="164019" gradientUnits="userSpaceOnUse">
<stop stop-opacity="0"/>
<stop offset="0.91" stop-opacity="0.8"/>
<stop offset="1"/>
</linearGradient>
<linearGradient id="paint2_linear" x1="341.126" y1="20.2414" x2="345.447" y2="86.9913" gradientUnits="userSpaceOnUse">
<stop offset="0.01"/>
<stop offset="0.1" stop-opacity="0.77"/>
<stop offset="0.99" stop-opacity="0"/>
</linearGradient>
<linearGradient id="paint3_linear" x1="17224.9" y1="232284" x2="-14499.2" y2="232296" gradientUnits="userSpaceOnUse">
<stop stop-opacity="0"/>
<stop offset="0.91" stop-opacity="0.8"/>
<stop offset="1"/>
</linearGradient>
<linearGradient id="paint4_linear" x1="6875.1" y1="149792" x2="2721.48" y2="149803" gradientUnits="userSpaceOnUse">
<stop stop-opacity="0"/>
<stop offset="0.91" stop-opacity="0.8"/>
<stop offset="1"/>
</linearGradient>
<linearGradient id="paint5_linear" x1="412.417" y1="120.215" x2="414.218" y2="147.49" gradientUnits="userSpaceOnUse">
<stop stop-color="#183866"/>
<stop offset="1" stop-color="#1A7FC1"/>
</linearGradient>
<linearGradient id="paint6_linear" x1="5051.14" y1="4166.57" x2="5071.42" y2="4473.8" gradientUnits="userSpaceOnUse">
<stop stop-color="#183866"/>
<stop offset="1" stop-color="#1A7FC1"/>
</linearGradient>
<linearGradient id="paint7_linear" x1="5211.96" y1="4166.57" x2="5232.13" y2="4473.8" gradientUnits="userSpaceOnUse">
<stop stop-color="#183866"/>
<stop offset="1" stop-color="#1A7FC1"/>
</linearGradient>
<linearGradient id="paint8_linear" x1="5373.71" y1="4166.57" x2="5393.88" y2="4473.8" gradientUnits="userSpaceOnUse">
<stop stop-color="#183866"/>
<stop offset="1" stop-color="#1A7FC1"/>
</linearGradient>
<linearGradient id="paint9_linear" x1="5051.03" y1="5910.38" x2="5071.31" y2="6217.61" gradientUnits="userSpaceOnUse">
<stop stop-color="#183866"/>
<stop offset="1" stop-color="#1A7FC1"/>
</linearGradient>
<linearGradient id="paint10_linear" x1="5211.96" y1="5910.38" x2="5232.13" y2="6217.61" gradientUnits="userSpaceOnUse">
<stop stop-color="#183866"/>
<stop offset="1" stop-color="#1A7FC1"/>
</linearGradient>
<linearGradient id="paint11_linear" x1="5373.71" y1="5910.38" x2="5393.88" y2="6217.61" gradientUnits="userSpaceOnUse">
<stop stop-color="#183866"/>
<stop offset="1" stop-color="#1A7FC1"/>
</linearGradient>
<linearGradient id="paint12_linear" x1="670.804" y1="222.78" x2="582.195" y2="188.3" gradientUnits="userSpaceOnUse">
<stop stop-color="#ECC4D7"/>
<stop offset="0.16" stop-color="#EDCBD5"/>
<stop offset="0.42" stop-color="#EFD4D1"/>
<stop offset="0.7" stop-color="#F2EAC9"/>
</linearGradient>
<linearGradient id="paint13_linear" x1="557.127" y1="249.654" x2="573.278" y2="249.654" gradientUnits="userSpaceOnUse">
<stop stop-color="#ECC4D7"/>
<stop offset="0.42" stop-color="#EFD4D1"/>
<stop offset="1" stop-color="#F2EAC9"/>
</linearGradient>
<linearGradient id="paint14_linear" x1="8521.6" y1="27742.2" x2="8712.08" y2="27742.2" gradientUnits="userSpaceOnUse">
<stop stop-color="#ECC4D7"/>
<stop offset="0.42" stop-color="#EFD4D1"/>
<stop offset="1" stop-color="#F2EAC9"/>
</linearGradient>
<linearGradient id="paint15_linear" x1="14843" y1="9235.79" x2="14018.9" y2="10237.9" gradientUnits="userSpaceOnUse">
<stop stop-color="#ECC4D7"/>
<stop offset="0.42" stop-color="#EFD4D1"/>
<stop offset="1" stop-color="#F2EAC9"/>
</linearGradient>
<linearGradient id="paint16_linear" x1="133.939" y1="528.026" x2="140.094" y2="475.976" gradientUnits="userSpaceOnUse">
<stop offset="0.1" stop-opacity="0.77"/>
<stop offset="0.99" stop-opacity="0"/>
</linearGradient>
<linearGradient id="paint17_linear" x1="5527.15" y1="7420.13" x2="4470.58" y2="7483.67" gradientUnits="userSpaceOnUse">
<stop offset="0.1" stop-opacity="0.77"/>
<stop offset="0.99" stop-opacity="0"/>
</linearGradient>
<linearGradient id="paint18_linear" x1="117.359" y1="445.847" x2="116.155" y2="518.814" gradientUnits="userSpaceOnUse">
<stop offset="0.36" stop-opacity="0.77"/>
<stop offset="0.99" stop-opacity="0"/>
</linearGradient>
<linearGradient id="paint19_linear" x1="3189.32" y1="2944.58" x2="3242.38" y2="1627.58" gradientUnits="userSpaceOnUse">
<stop offset="0.01"/>
<stop offset="0.1" stop-opacity="0.77"/>
<stop offset="0.99" stop-opacity="0"/>
</linearGradient>
<linearGradient id="paint20_linear" x1="4211.32" y1="2753.76" x2="3238.58" y2="1406.5" gradientUnits="userSpaceOnUse">
<stop offset="0.01"/>
<stop offset="0.1" stop-opacity="0.77"/>
<stop offset="0.99" stop-opacity="0"/>
</linearGradient>
<linearGradient id="paint21_linear" x1="5303.01" y1="2074.2" x2="5180.94" y2="1227.8" gradientUnits="userSpaceOnUse">
<stop offset="0.1" stop-opacity="0.77"/>
<stop offset="0.99" stop-opacity="0"/>
</linearGradient>
</defs>
</svg>
